Coordinates
version=1
nRows=12
nColumns=24
inDegrees=yes

Units are S.I. units (second, meters, Newtons, ...)
Angles are in degrees.

endheader
time	pelvis_tilt	pelvis_list	pelvis_rotation	pelvis_tx	pelvis_ty	pelvis_tz	hip_flexion_r	hip_adduction_r	hip_rotation_r	knee_angle_r	ankle_angle_r	subtalar_angle_r	mtp_angle_r	hip_flexion_l	hip_adduction_l	hip_rotation_l	knee_angle_l	ankle_angle_l	subtalar_angle_l	mtp_angle_l	lumbar_extension	lumbar_bending	lumbar_rotation
      1.12000000	     16.79500541	      2.88352889	      2.75110873	     -0.51953597	      0.91972189	      0.30729060	     11.42947199	     -1.81495422	     -2.00141577	    -11.87053469	     10.70281102	     -1.39478939	     44.72453570	    -32.71023479	      2.35188609	     -4.43760404	    -14.37638551	     31.65813744	     13.30701494	     19.66995558	    -35.16381336	     -0.95049792	      0.87101441
      1.12500000	     16.91760066	      2.77773369	      2.87558921	     -0.51166771	      0.91891083	      0.30769666	     11.48295890	     -1.65033899	     -1.78751208	    -12.94131479	     10.91137863	     -1.64725448	     44.62310820	    -32.99457572	      2.05213894	     -4.52369501	    -15.10971112	     31.66588153	     13.58824571	     19.88424506	    -35.21061460	     -0.70932865	      0.79337788
      1.13000000	     17.05209171	      2.69521911	      3.00598493	     -0.50377751	      0.91818011	      0.30811913	     11.46382207	     -1.49552515	     -1.60548243	    -14.00217920	     11.12808050	     -1.84606975	     43.82249338	    -33.26872855	      1.76659861	     -4.55908071	    -15.86334251	     31.43059855	     13.72549042	     21.83601411	    -35.27185276	     -0.49660877	      0.71940652
      1.13500000	     17.04742290	      2.60915281	      3.13326311	     -0.49581458	      0.91726148	      0.30837109	     11.72313776	     -1.35922020	     -1.79787398	    -15.35389920	     10.81519186	     -2.02413866	     44.45167432	    -33.35585903	      1.50827429	     -4.51598304	    -16.69956019	     31.24024245	     13.77448590	     22.94809276	    -35.17425794	     -0.27171619	      0.68787983
      1.14000000	     17.14003691	      2.47853457	      3.32151316	     -0.48792086	      0.91656811	      0.30861310	     11.86472406	     -1.16723314	     -2.25290330	    -16.67981794	      9.22634747	     -3.05993312	     45.93170459	    -33.53006664	      1.17169435	     -4.38334072	    -17.54681856	     30.97680436	     13.75474991	     24.49240275	    -35.19027504	      0.03744312	      0.57806511
      1.14500000	     17.08588927	      2.34092689	      3.38066165	     -0.48031802	      0.91581575	      0.30881261	     12.29262566	     -0.98477357	     -2.52405360	    -18.16054264	      7.40169469	     -4.13070899	     45.54250888	    -33.47425218	      0.94671788	     -4.20772205	    -18.48326391	     30.61876042	     13.48957329	     26.25195125	    -35.08621350	      0.30377710	      0.65815324
      1.15000000	     16.91058965	      2.23916939	      3.44461461	     -0.47275475	      0.91514189	      0.30903990	     12.88795153	     -0.90143772	     -2.79576042	    -19.72821158	      6.48799766	     -4.46623533	     44.14045924	    -33.21924772	      0.77037130	     -3.90591721	    -19.53066870	     30.20197526	     13.17486405	     27.79032769	    -34.85680147	      0.51167202	      0.76720871
      1.15500000	     16.67251555	      2.15210759	      3.47274084	     -0.46519719	      0.91445361	      0.30940887	     13.55545183	     -0.83933814	     -2.91771048	    -21.28159056	      6.65817618	     -4.23347373	     44.26069634	    -32.83346064	      0.63707725	     -3.56113621	    -20.69927201	     29.84809818	     12.87509144	     28.21354317	    -34.56802530	      0.69152207	      0.80327371
      1.16000000	     16.60977700	      1.97693117	      3.49214311	     -0.45755599	      0.91412681	      0.30971544	     13.95911680	     -0.69563351	     -3.09320498	    -22.70966350	      7.35422248	     -3.26021392	     45.20864122	    -32.63056316	      0.43065826	     -3.28068409	    -21.82902568	     29.07600366	     12.31094980	     31.49239999	    -34.45626736	      0.95881364	      0.99757572
      1.16500000	     16.47079636	      1.83911902	      3.58632812	     -0.44991625	      0.91387413	      0.30991168	     14.42199694	     -0.65039586	     -3.45429503	    -24.15661784	      7.91613602	     -2.25252356	     45.20438891	    -32.22160253	      0.23342432	     -2.89319007	    -23.19811633	     28.44216892	     11.78823448	     32.37043058	    -34.27419325	      1.22942424	      1.10864484
      1.17000000	     16.47086279	      1.58719043	      3.68080574	     -0.44222241	      0.91389145	      0.31028550	     14.67730154	     -0.45072379	     -3.88349652	    -25.52780925	      8.20682473	     -1.90012201	     44.16182242	    -31.87009082	     -0.11998889	     -2.77358465	    -24.70481199	     27.55143668	     11.30698886	     35.81000884	    -34.23082650	      1.60651049	      1.17206706
      1.17500000	     16.29609140	      1.40538530	      3.61569675	     -0.43449536	      0.91362551	      0.31090171	     15.11938283	     -0.29556436	     -4.05000471	    -26.90053337	      8.50609191	     -1.82352295	     43.23103822	    -31.29914981	     -0.28331789	     -2.69551167	    -26.28047678	     26.71521561	     10.68016502	     37.44139539	    -33.99459638	      1.82140440	      1.40652924
